Coordinates
version=1
nRows=6
nColumns=36
inDegrees=yes

Units are S.I. units (second, meters, Newtons, ...)
If the header above contains a line with 'inDegrees', this indicates whether rotational values are in degrees (yes) or radians (no).

endheader
time	pelvis_tilt	pelvis_list	pelvis_rotation	pelvis_tx	pelvis_ty	pelvis_tz	hip_flexion_r	hip_adduction_r	hip_rotation_r	knee_angle_r	knee_angle_r_beta	ankle_angle_r	subtalar_angle_r	mtp_angle_r	hip_flexion_l	hip_adduction_l	hip_rotation_l	knee_angle_l	knee_angle_l_beta	ankle_angle_l	subtalar_angle_l	mtp_angle_l	lumbar_extension	lumbar_bending	lumbar_rotation	arm_flex_r	arm_add_r	arm_rot_r	elbow_flex_r	pro_sup_r	arm_flex_l	arm_add_l	arm_rot_l	elbow_flex_l	pro_sup_l
      7.03333330	    -19.80688731	     21.31871983	     25.34244758	      1.50388277	      0.66963397	     -0.19282367	    110.40552436	    -14.05542924	     37.64414472	     61.49128826	      1.07322544	     -8.64307280	      2.23462645	     -7.49999987	     83.79428258	     23.92264155	    -26.59862396	    100.38116942	      1.75198191	     31.04987718	     -6.27970554	     -7.49999987	    -28.00066964	    -18.15273831	    -29.02198493	     75.22424102	      7.97112242	     68.16819472	    108.88934633	     82.20536293	     91.11869540	    -15.85271653	     73.90705183	    116.32628952	     92.39271673
      7.05000000	    -19.55001218	     21.65713860	     24.81924805	      1.50496008	      0.67475796	     -0.19223318	    109.91262169	    -13.86750502	     37.52185806	     61.24173633	      1.06886994	     -8.39308802	      2.49962154	     -7.49999987	     82.90326343	     24.03228876	    -26.50079539	     99.64098418	      1.73906324	     31.11023185	     -6.39635937	     -7.49999987	    -27.59707278	    -18.84249022	    -28.78038127	     75.28563167	      8.00771559	     68.25836473	    109.28106284	     83.22617684	     91.29061334	    -15.63033100	     72.83655256	    116.44184579	     92.78314088
      7.06666670	    -19.29358677	     21.90465385	     24.21626309	      1.50515421	      0.68050954	     -0.19178848	    109.48184362	    -13.66169874	     37.26973318	     60.96613730	      1.06405983	     -8.22840841	      2.85204918	     -7.49999987	     82.09060182	     24.13626766	    -26.27789587	     98.92966339	      1.72664835	     31.07069022	     -6.54718455	     -7.49999987	    -27.06383185	    -19.39338948	    -28.33815230	     75.22278298	      8.03975406	     67.47334623	    108.09079272	     83.13841281	     91.18787893	    -15.54113803	     72.49653795	    116.00873426	     92.78951867
      7.08333330	    -18.66747833	     22.42849747	     23.40662619	      1.51039809	      0.69208085	     -0.18934077	    108.59510822	    -13.43377342	     37.08546526	     60.62652606	      1.05813249	     -7.81465371	      3.37384946	     -7.49999987	     80.69683123	     24.38727133	    -26.03680511	     97.98855045	      1.71022283	     31.18182083	     -6.62800563	     -7.49999987	    -26.93512757	    -20.19163290	    -28.24308079	     74.85212459	      8.91173654	     67.53844986	    108.62968520	     81.28607475	     90.73047407	    -16.46823527	     72.32461639	    116.87208208	     89.87387792
      7.10000000	    -18.31415983	     22.80786613	     22.71123990	      1.51059276	      0.70085360	     -0.18817052	    107.94675091	    -13.20512538	     36.88358564	     60.24036447	      1.05139270	     -7.61712150	      3.55265486	     -7.49999987	     79.51092154	     24.64053914	    -25.78248910	     96.95705133	      1.69221978	     31.31960749	     -6.63611055	     -7.49999987	    -26.35812389	    -21.02490038	    -27.80852529	     74.31685886	      9.20337959	     67.07174934	    108.08141859	     83.39358541	     89.93528189	    -16.67392635	     71.59140275	    117.07646666	     91.41028873
      7.11666670	    -17.50544662	     23.33359902	     21.82151513	      1.50681178	      0.71078276	     -0.18939824	    106.74783845	    -13.06139429	     36.60495190	     59.75398123	      1.04290371	     -7.35056855	      3.84267453	     -7.49999987	     77.78450764	     24.89041812	    -25.56637420	     95.71675417	      1.67057251	     31.19492734	     -6.85648222	     -7.49999987	    -26.68680429	    -21.47314425	    -27.61703544	     74.52598195	      9.01486963	     66.02833688	    107.86643965	     83.52354532	     90.23306724	    -16.63230632	     71.79128113	    115.76323527	     91.80822018
